<?xml version="1.0" encoding="utf-8"?>
<!-- Generator: Adobe Illustrator 16.0.0, SVG Export Plug-In . SVG Version: 6.00 Build 0)  -->
<!DOCTYPE svg PUBLIC "-//W3C//DTD SVG 1.1//EN" "http://www.w3.org/Graphics/SVG/1.1/DTD/svg11.dtd">
<svg version="1.1" id="Layer_1" xmlns="http://www.w3.org/2000/svg" xmlns:xlink="http://www.w3.org/1999/xlink" x="0px" y="0px"
	 width="269px" height="60px" viewBox="0 0 269 60" enable-background="new 0 0 269 60" xml:space="preserve">
<g>
	<path fill="#4C4C4C" d="M26.528,1.498L3.233,18.426c-2.748,1.997-3.897,5.538-2.85,8.766L9.281,54.58
		c1.05,3.231,4.061,5.42,7.461,5.42h28.8c3.394,0,6.405-2.188,7.459-5.42l8.898-27.388c1.049-3.228-0.104-6.769-2.85-8.766
		L35.748,1.498C32.999-0.5,29.278-0.5,26.528,1.498"/>
	<linearGradient id="SVGID_1_" gradientUnits="userSpaceOnUse" x1="24.8789" y1="1.4004" x2="40.9818" y2="61.4972">
		<stop  offset="0" style="stop-color:#7D3962"/>
		<stop  offset="1" style="stop-color:#6C2250"/>
	</linearGradient>
	<path fill="url(#SVGID_1_)" d="M26.528,1.498L3.233,18.426c-2.748,1.997-3.897,5.538-2.85,8.766L9.281,54.58
		c1.05,3.231,4.061,5.42,7.461,5.42h28.8c3.394,0,6.405-2.188,7.459-5.42l8.898-27.388c1.049-3.228-0.104-6.769-2.85-8.766
		L35.748,1.498C32.999-0.5,29.278-0.5,26.528,1.498"/>
	<g>
		<path fill="#7D1C50" d="M88.63,5.217c0.877,0,1.632,0.064,2.264,0.193c0.632,0.128,1.076,0.246,1.333,0.353l-0.546,2.569
			c-0.257-0.128-0.621-0.251-1.092-0.369c-0.472-0.117-1.05-0.177-1.734-0.177c-1.392,0-2.366,0.381-2.923,1.141
			s-0.835,1.782-0.835,3.066v1.445h6.423v2.505h-6.423v14.195H82.11v-18.21c0-2.141,0.524-3.794,1.573-4.961
			S86.382,5.217,88.63,5.217z"/>
		<path fill="#7D1C50" d="M93.575,21.82c0-1.477,0.214-2.767,0.643-3.869c0.428-1.103,0.995-2.019,1.702-2.746
			c0.706-0.728,1.52-1.273,2.44-1.638s1.863-0.546,2.826-0.546c2.248,0,3.972,0.701,5.171,2.104
			c1.198,1.402,1.798,3.538,1.798,6.406c0,0.129,0,0.295,0,0.498c0,0.204-0.011,0.391-0.031,0.563H96.69
			c0.129,1.734,0.632,3.051,1.51,3.95c0.877,0.899,2.248,1.349,4.11,1.349c1.049,0,1.932-0.091,2.649-0.273
			c0.718-0.182,1.258-0.357,1.622-0.529L107,29.593c-0.365,0.192-1.002,0.396-1.911,0.61c-0.91,0.214-1.943,0.321-3.1,0.321
			c-1.456,0-2.714-0.22-3.773-0.659c-1.06-0.438-1.933-1.043-2.617-1.814c-0.686-0.771-1.193-1.686-1.525-2.745
			C93.741,24.245,93.575,23.084,93.575,21.82z M105.04,20.183c0.021-1.349-0.315-2.457-1.011-3.323
			c-0.696-0.867-1.654-1.301-2.875-1.301c-0.686,0-1.29,0.134-1.814,0.401s-0.969,0.615-1.333,1.044
			c-0.364,0.428-0.647,0.92-0.851,1.477c-0.204,0.558-0.337,1.124-0.401,1.702H105.04z"/>
		<path fill="#7D1C50" d="M117.469,30.46c-1.842-0.043-3.147-0.438-3.918-1.188c-0.771-0.749-1.156-1.916-1.156-3.501V5.73
			l2.986-0.514v20.072c0,0.493,0.043,0.899,0.129,1.221c0.085,0.321,0.225,0.578,0.418,0.771c0.192,0.192,0.449,0.337,0.771,0.434
			s0.717,0.177,1.188,0.241L117.469,30.46z"/>
		<path fill="#7D1C50" d="M122.704,10.42c-0.536,0-0.991-0.177-1.365-0.53c-0.375-0.354-0.563-0.829-0.563-1.429
			s0.188-1.076,0.563-1.43c0.374-0.353,0.829-0.529,1.365-0.529c0.534,0,0.989,0.177,1.364,0.529c0.375,0.354,0.563,0.83,0.563,1.43
			s-0.188,1.075-0.563,1.429S123.238,10.42,122.704,10.42z M124.213,30.139h-2.986v-16.7h2.986V30.139z"/>
		<path fill="#7D1C50" d="M144.061,21.82c0,1.264-0.166,2.431-0.498,3.501c-0.332,1.071-0.819,1.991-1.461,2.762
			c-0.643,0.771-1.43,1.371-2.361,1.799c-0.931,0.428-1.996,0.643-3.195,0.643c-0.963,0-1.814-0.129-2.553-0.386
			s-1.29-0.503-1.654-0.738v6.68h-2.986V13.952c0.706-0.171,1.59-0.358,2.649-0.562s2.285-0.306,3.677-0.306
			c1.285,0,2.441,0.204,3.469,0.61c1.027,0.407,1.905,0.985,2.634,1.734c0.728,0.75,1.289,1.665,1.686,2.746
			S144.061,20.472,144.061,21.82z M140.945,21.82c0-1.947-0.482-3.446-1.445-4.496c-0.964-1.049-2.248-1.573-3.854-1.573
			c-0.899,0-1.602,0.032-2.104,0.097c-0.503,0.063-0.904,0.139-1.204,0.225v10.534c0.364,0.3,0.889,0.589,1.574,0.866
			c0.685,0.279,1.434,0.418,2.248,0.418c0.855,0,1.59-0.155,2.199-0.466c0.61-0.31,1.108-0.738,1.494-1.284
			c0.385-0.546,0.663-1.188,0.835-1.928C140.859,23.475,140.945,22.678,140.945,21.82z"/>
		<path fill="#7D1C50" d="M147.335,21.82c0-1.477,0.214-2.767,0.643-3.869c0.428-1.103,0.995-2.019,1.702-2.746
			c0.706-0.728,1.52-1.273,2.44-1.638s1.863-0.546,2.826-0.546c2.248,0,3.972,0.701,5.171,2.104
			c1.198,1.402,1.798,3.538,1.798,6.406c0,0.129,0,0.295,0,0.498c0,0.204-0.011,0.391-0.031,0.563H150.45
			c0.129,1.734,0.632,3.051,1.51,3.95c0.877,0.899,2.248,1.349,4.11,1.349c1.049,0,1.932-0.091,2.649-0.273
			c0.718-0.182,1.258-0.357,1.622-0.529l0.418,2.505c-0.365,0.192-1.002,0.396-1.911,0.61c-0.91,0.214-1.943,0.321-3.1,0.321
			c-1.456,0-2.714-0.22-3.773-0.659c-1.06-0.438-1.933-1.043-2.617-1.814c-0.686-0.771-1.193-1.686-1.525-2.745
			C147.501,24.245,147.335,23.084,147.335,21.82z M158.8,20.183c0.021-1.349-0.315-2.457-1.011-3.323
			c-0.696-0.867-1.654-1.301-2.875-1.301c-0.686,0-1.29,0.134-1.814,0.401s-0.969,0.615-1.333,1.044
			c-0.364,0.428-0.647,0.92-0.851,1.477c-0.204,0.558-0.337,1.124-0.401,1.702H158.8z"/>
		<path fill="#7D1C50" d="M176.623,14.178c0.364-0.235,0.916-0.482,1.654-0.739s1.59-0.386,2.553-0.386
			c1.199,0,2.265,0.215,3.195,0.643c0.932,0.429,1.719,1.028,2.361,1.799c0.642,0.771,1.129,1.691,1.461,2.762
			c0.332,1.071,0.498,2.248,0.498,3.533c0,1.349-0.198,2.563-0.595,3.645c-0.396,1.082-0.958,1.997-1.686,2.746
			c-0.729,0.75-1.606,1.328-2.634,1.734s-2.184,0.61-3.469,0.61c-1.392,0-2.622-0.097-3.692-0.289
			c-1.071-0.193-1.949-0.386-2.634-0.578V5.73l2.986-0.514V14.178z M176.623,27.537c0.3,0.086,0.723,0.166,1.269,0.241
			s1.226,0.112,2.04,0.112c1.605,0,2.89-0.53,3.854-1.59c0.963-1.06,1.445-2.563,1.445-4.512c0-0.856-0.086-1.659-0.257-2.409
			c-0.172-0.749-0.45-1.396-0.835-1.943c-0.386-0.546-0.884-0.974-1.494-1.284c-0.609-0.311-1.344-0.466-2.199-0.466
			c-0.814,0-1.563,0.14-2.248,0.418c-0.686,0.278-1.21,0.567-1.574,0.867V27.537z"/>
		<path fill="#7D1C50" d="M191.62,21.82c0-1.477,0.214-2.767,0.643-3.869c0.428-1.103,0.995-2.019,1.702-2.746
			c0.706-0.728,1.52-1.273,2.44-1.638s1.863-0.546,2.826-0.546c2.248,0,3.972,0.701,5.171,2.104
			c1.198,1.402,1.798,3.538,1.798,6.406c0,0.129,0,0.295,0,0.498c0,0.204-0.011,0.391-0.031,0.563h-11.434
			c0.129,1.734,0.632,3.051,1.51,3.95c0.877,0.899,2.248,1.349,4.11,1.349c1.049,0,1.932-0.091,2.649-0.273
			c0.718-0.182,1.258-0.357,1.622-0.529l0.418,2.505c-0.365,0.192-1.002,0.396-1.911,0.61c-0.91,0.214-1.943,0.321-3.1,0.321
			c-1.456,0-2.714-0.22-3.773-0.659c-1.06-0.438-1.933-1.043-2.617-1.814c-0.686-0.771-1.193-1.686-1.525-2.745
			C191.786,24.245,191.62,23.084,191.62,21.82z M203.085,20.183c0.021-1.349-0.315-2.457-1.011-3.323
			c-0.696-0.867-1.654-1.301-2.875-1.301c-0.686,0-1.29,0.134-1.814,0.401s-0.969,0.615-1.333,1.044
			c-0.364,0.428-0.647,0.92-0.851,1.477c-0.204,0.558-0.337,1.124-0.401,1.702H203.085z"/>
		<path fill="#7D1C50" d="M217.762,30.524c-1.349,0-2.532-0.215-3.549-0.643s-1.873-1.027-2.569-1.799
			c-0.695-0.771-1.215-1.686-1.558-2.746c-0.343-1.06-0.514-2.231-0.514-3.517c0-1.284,0.188-2.461,0.563-3.532
			c0.374-1.07,0.904-1.996,1.59-2.778c0.685-0.781,1.525-1.392,2.521-1.83c0.996-0.438,2.104-0.658,3.324-0.658
			c0.749,0,1.498,0.063,2.248,0.192c0.749,0.128,1.466,0.332,2.151,0.61l-0.674,2.537c-0.45-0.214-0.97-0.386-1.558-0.514
			c-0.59-0.129-1.216-0.193-1.879-0.193c-1.67,0-2.95,0.525-3.838,1.574c-0.889,1.049-1.333,2.58-1.333,4.592
			c0,0.899,0.102,1.725,0.306,2.474c0.203,0.749,0.524,1.392,0.963,1.927s1.001,0.947,1.687,1.236
			c0.685,0.289,1.52,0.434,2.505,0.434c0.792,0,1.509-0.075,2.151-0.225s1.146-0.311,1.51-0.482l0.417,2.506
			c-0.171,0.107-0.417,0.208-0.738,0.305s-0.686,0.182-1.092,0.257c-0.407,0.075-0.841,0.139-1.301,0.192
			C218.634,30.497,218.189,30.524,217.762,30.524z"/>
		<path fill="#7D1C50" d="M231.475,20.954c0.643,0.492,1.322,1.103,2.04,1.83c0.717,0.729,1.423,1.515,2.119,2.36
			c0.695,0.847,1.354,1.702,1.976,2.569c0.62,0.867,1.145,1.676,1.573,2.425h-3.501c-0.449-0.749-0.969-1.515-1.557-2.296
			c-0.59-0.781-1.205-1.531-1.847-2.248c-0.643-0.718-1.296-1.376-1.959-1.976c-0.664-0.599-1.296-1.103-1.896-1.51v8.029h-2.986
			V5.73l2.986-0.514v15.223c0.514-0.514,1.081-1.08,1.702-1.702c0.621-0.62,1.231-1.252,1.831-1.895
			c0.599-0.643,1.166-1.258,1.702-1.847c0.534-0.589,0.995-1.107,1.381-1.558h3.5c-0.492,0.535-1.027,1.124-1.605,1.767
			s-1.178,1.29-1.799,1.942c-0.621,0.654-1.247,1.307-1.878,1.96C232.626,19.761,232.031,20.376,231.475,20.954z"/>
		<path fill="#7D1C50" d="M240.435,21.82c0-1.477,0.214-2.767,0.643-3.869c0.428-1.103,0.995-2.019,1.702-2.746
			c0.706-0.728,1.52-1.273,2.44-1.638s1.863-0.546,2.826-0.546c2.248,0,3.972,0.701,5.171,2.104
			c1.198,1.402,1.798,3.538,1.798,6.406c0,0.129,0,0.295,0,0.498c0,0.204-0.011,0.391-0.031,0.563H243.55
			c0.129,1.734,0.632,3.051,1.51,3.95c0.877,0.899,2.248,1.349,4.11,1.349c1.049,0,1.932-0.091,2.649-0.273
			c0.718-0.182,1.258-0.357,1.622-0.529l0.418,2.505c-0.365,0.192-1.002,0.396-1.911,0.61c-0.91,0.214-1.943,0.321-3.1,0.321
			c-1.456,0-2.714-0.22-3.773-0.659c-1.06-0.438-1.933-1.043-2.617-1.814c-0.686-0.771-1.193-1.686-1.525-2.745
			C240.601,24.245,240.435,23.084,240.435,21.82z M251.899,20.183c0.021-1.349-0.315-2.457-1.011-3.323
			c-0.696-0.867-1.654-1.301-2.875-1.301c-0.686,0-1.29,0.134-1.814,0.401s-0.969,0.615-1.333,1.044
			c-0.364,0.428-0.647,0.92-0.851,1.477c-0.204,0.558-0.337,1.124-0.401,1.702H251.899z"/>
		<path fill="#7D1C50" d="M265.484,13.085c0.257,0,0.551,0.017,0.883,0.049s0.659,0.075,0.979,0.128
			c0.321,0.054,0.615,0.107,0.884,0.161c0.268,0.054,0.466,0.102,0.594,0.145l-0.514,2.601c-0.236-0.085-0.626-0.187-1.172-0.305
			c-0.546-0.117-1.248-0.177-2.104-0.177c-0.558,0-1.108,0.06-1.654,0.177c-0.546,0.118-0.905,0.198-1.076,0.241v14.034h-2.986
			V14.146c0.706-0.257,1.584-0.498,2.634-0.723C263,13.197,264.178,13.085,265.484,13.085z"/>
	</g>
	<g>
		<path fill="#7D1C50" d="M84.59,40.927c0.482,0,0.875,0.037,1.179,0.111c0.304,0.075,0.502,0.141,0.594,0.198l-0.224,0.963
			c-0.126-0.057-0.313-0.117-0.56-0.181c-0.246-0.063-0.559-0.094-0.938-0.094c-0.791,0-1.356,0.2-1.694,0.602
			c-0.339,0.401-0.508,1.044-0.508,1.927v0.93h3.579v0.946h-3.579v7.948h-1.118v-9.858c0-1.158,0.267-2.03,0.8-2.615
			S83.478,40.927,84.59,40.927z"/>
		<path fill="#7D1C50" d="M90.818,45.21c0.367,0,0.714,0.029,1.041,0.087c0.326,0.057,0.553,0.114,0.68,0.172l-0.224,0.963
			c-0.093-0.045-0.278-0.095-0.56-0.146c-0.281-0.052-0.651-0.078-1.109-0.078c-0.482,0-0.869,0.035-1.162,0.104
			c-0.292,0.068-0.484,0.126-0.576,0.172v7.794H87.79v-8.482c0.287-0.126,0.683-0.255,1.188-0.387
			C89.481,45.276,90.096,45.21,90.818,45.21z"/>
		<path fill="#7D1C50" d="M101.812,49.839c0,0.699-0.101,1.336-0.301,1.909c-0.201,0.574-0.481,1.062-0.843,1.463
			s-0.789,0.714-1.282,0.938s-1.038,0.335-1.634,0.335c-0.597,0-1.142-0.111-1.635-0.335s-0.921-0.536-1.281-0.938
			c-0.361-0.401-0.643-0.889-0.844-1.463c-0.2-0.573-0.301-1.21-0.301-1.909c0-0.7,0.101-1.336,0.301-1.91
			c0.201-0.573,0.482-1.063,0.844-1.471c0.36-0.407,0.788-0.723,1.281-0.946s1.038-0.336,1.635-0.336
			c0.596,0,1.141,0.112,1.634,0.336s0.921,0.539,1.282,0.946s0.642,0.897,0.843,1.471C101.711,48.503,101.812,49.139,101.812,49.839
			z M100.625,49.839c0-1.112-0.258-1.999-0.774-2.658c-0.517-0.66-1.216-0.989-2.099-0.989c-0.884,0-1.583,0.329-2.1,0.989
			c-0.516,0.659-0.773,1.546-0.773,2.658s0.258,1.995,0.773,2.649c0.517,0.653,1.216,0.98,2.1,0.98c0.883,0,1.582-0.327,2.099-0.98
			C100.367,51.834,100.625,50.951,100.625,49.839z"/>
		<path fill="#7D1C50" d="M104.237,45.692c0.333-0.092,0.78-0.195,1.342-0.31c0.563-0.115,1.25-0.173,2.064-0.173
			c0.677,0,1.242,0.098,1.695,0.293s0.813,0.473,1.084,0.834c0.269,0.361,0.461,0.795,0.576,1.3
			c0.114,0.505,0.172,1.061,0.172,1.668v4.973h-1.118v-4.611c0-0.63-0.043-1.163-0.129-1.6c-0.086-0.436-0.229-0.791-0.431-1.066
			c-0.2-0.275-0.464-0.474-0.791-0.594s-0.737-0.181-1.23-0.181c-0.527,0-0.983,0.028-1.367,0.086
			c-0.385,0.058-0.634,0.109-0.749,0.155v7.811h-1.118V45.692z"/>
		<path fill="#7D1C50" d="M115.076,45.383h3.544v0.946h-3.544v4.73c0,0.505,0.043,0.915,0.129,1.23s0.209,0.56,0.37,0.731
			c0.16,0.172,0.355,0.287,0.585,0.344c0.229,0.058,0.481,0.086,0.757,0.086c0.47,0,0.849-0.054,1.136-0.163
			c0.286-0.109,0.51-0.209,0.671-0.301l0.275,0.929c-0.161,0.104-0.442,0.221-0.844,0.353s-0.837,0.198-1.308,0.198
			c-0.55,0-1.012-0.072-1.385-0.215c-0.373-0.144-0.671-0.361-0.895-0.654c-0.224-0.292-0.382-0.656-0.473-1.093
			c-0.093-0.436-0.138-0.951-0.138-1.548v-8.189l1.118-0.207V45.383z"/>
		<path fill="#7D1C50" d="M120.151,49.821c0-0.78,0.111-1.459,0.336-2.039c0.224-0.579,0.516-1.063,0.877-1.453
			c0.361-0.391,0.774-0.68,1.238-0.869c0.465-0.189,0.943-0.284,1.438-0.284c1.089,0,1.958,0.355,2.606,1.067
			c0.647,0.711,0.972,1.806,0.972,3.286c0,0.092-0.003,0.184-0.009,0.274c-0.006,0.093-0.015,0.179-0.025,0.259h-6.245
			c0.034,1.09,0.304,1.927,0.809,2.512c0.504,0.585,1.308,0.877,2.408,0.877c0.607,0,1.09-0.057,1.445-0.172
			c0.355-0.114,0.613-0.212,0.774-0.292l0.206,0.963c-0.161,0.092-0.462,0.201-0.903,0.327s-0.961,0.189-1.557,0.189
			c-0.78,0-1.445-0.115-1.996-0.345c-0.551-0.229-1.004-0.55-1.359-0.963s-0.613-0.903-0.773-1.471
			C120.231,51.12,120.151,50.498,120.151,49.821z M126.466,49.116c-0.023-0.93-0.241-1.652-0.654-2.168
			c-0.413-0.517-0.998-0.774-1.755-0.774c-0.401,0-0.76,0.08-1.075,0.241c-0.315,0.16-0.591,0.376-0.826,0.645
			c-0.234,0.27-0.418,0.583-0.55,0.938c-0.133,0.355-0.21,0.729-0.232,1.118H126.466z"/>
		<path fill="#7D1C50" d="M130.112,45.692c0.333-0.092,0.78-0.195,1.342-0.31c0.563-0.115,1.25-0.173,2.064-0.173
			c0.677,0,1.242,0.098,1.695,0.293s0.813,0.473,1.084,0.834c0.269,0.361,0.461,0.795,0.576,1.3
			c0.114,0.505,0.172,1.061,0.172,1.668v4.973h-1.118v-4.611c0-0.63-0.043-1.163-0.129-1.6c-0.086-0.436-0.229-0.791-0.431-1.066
			c-0.2-0.275-0.464-0.474-0.791-0.594s-0.737-0.181-1.23-0.181c-0.527,0-0.983,0.028-1.367,0.086
			c-0.385,0.058-0.634,0.109-0.749,0.155v7.811h-1.118V45.692z"/>
		<path fill="#7D1C50" d="M146.973,54.002c-0.333,0.115-0.757,0.224-1.273,0.327c-0.516,0.104-1.17,0.154-1.961,0.154
			c-0.654,0-1.247-0.105-1.781-0.318c-0.533-0.212-0.992-0.519-1.376-0.92c-0.385-0.401-0.683-0.889-0.895-1.463
			c-0.213-0.573-0.318-1.221-0.318-1.943c0-0.677,0.089-1.299,0.267-1.867c0.178-0.567,0.438-1.058,0.783-1.471
			c0.344-0.413,0.766-0.734,1.265-0.964c0.498-0.229,1.069-0.344,1.711-0.344c0.585,0,1.093,0.083,1.523,0.249
			c0.43,0.167,0.742,0.324,0.938,0.474v-4.783l1.118-0.206V54.002z M145.854,47c-0.104-0.08-0.232-0.166-0.388-0.259
			c-0.154-0.091-0.335-0.177-0.542-0.258c-0.206-0.08-0.43-0.146-0.671-0.197c-0.24-0.052-0.493-0.078-0.757-0.078
			c-0.551,0-1.013,0.098-1.385,0.293c-0.373,0.195-0.674,0.456-0.903,0.782c-0.229,0.327-0.396,0.712-0.499,1.153
			s-0.154,0.909-0.154,1.402c0,1.17,0.292,2.067,0.877,2.692s1.359,0.938,2.322,0.938c0.551,0,0.995-0.025,1.334-0.077
			c0.338-0.052,0.594-0.106,0.766-0.164V47z"/>
		<path fill="#7D1C50" d="M160.926,54.002c-0.333,0.115-0.757,0.224-1.273,0.327c-0.516,0.104-1.17,0.154-1.961,0.154
			c-0.654,0-1.247-0.105-1.781-0.318c-0.533-0.212-0.992-0.519-1.376-0.92c-0.385-0.401-0.683-0.889-0.895-1.463
			c-0.213-0.573-0.318-1.221-0.318-1.943c0-0.677,0.089-1.299,0.267-1.867c0.178-0.567,0.438-1.058,0.783-1.471
			c0.344-0.413,0.766-0.734,1.265-0.964c0.498-0.229,1.069-0.344,1.711-0.344c0.585,0,1.093,0.083,1.523,0.249
			c0.43,0.167,0.742,0.324,0.938,0.474v-4.783l1.118-0.206V54.002z M159.808,47c-0.104-0.08-0.232-0.166-0.388-0.259
			c-0.154-0.091-0.335-0.177-0.542-0.258c-0.206-0.08-0.43-0.146-0.671-0.197c-0.24-0.052-0.493-0.078-0.757-0.078
			c-0.551,0-1.013,0.098-1.385,0.293c-0.373,0.195-0.674,0.456-0.903,0.782c-0.229,0.327-0.396,0.712-0.499,1.153
			s-0.154,0.909-0.154,1.402c0,1.17,0.292,2.067,0.877,2.692s1.359,0.938,2.322,0.938c0.551,0,0.995-0.025,1.334-0.077
			c0.338-0.052,0.594-0.106,0.766-0.164V47z"/>
		<path fill="#7D1C50" d="M163.352,49.821c0-0.78,0.111-1.459,0.336-2.039c0.224-0.579,0.516-1.063,0.877-1.453
			c0.361-0.391,0.774-0.68,1.238-0.869c0.465-0.189,0.943-0.284,1.438-0.284c1.089,0,1.958,0.355,2.606,1.067
			c0.647,0.711,0.972,1.806,0.972,3.286c0,0.092-0.003,0.184-0.009,0.274c-0.006,0.093-0.015,0.179-0.025,0.259h-6.245
			c0.034,1.09,0.304,1.927,0.809,2.512c0.504,0.585,1.308,0.877,2.408,0.877c0.607,0,1.09-0.057,1.445-0.172
			c0.355-0.114,0.613-0.212,0.774-0.292l0.206,0.963c-0.161,0.092-0.462,0.201-0.903,0.327s-0.961,0.189-1.557,0.189
			c-0.78,0-1.445-0.115-1.996-0.345c-0.551-0.229-1.004-0.55-1.359-0.963s-0.613-0.903-0.773-1.471
			C163.432,51.12,163.352,50.498,163.352,49.821z M169.666,49.116c-0.023-0.93-0.241-1.652-0.654-2.168
			c-0.413-0.517-0.998-0.774-1.755-0.774c-0.401,0-0.76,0.08-1.075,0.241c-0.315,0.16-0.591,0.376-0.826,0.645
			c-0.234,0.27-0.418,0.583-0.55,0.938c-0.133,0.355-0.21,0.729-0.232,1.118H169.666z"/>
		<path fill="#7D1C50" d="M176.005,53.073c0.241-0.493,0.489-1.059,0.742-1.695c0.253-0.636,0.498-1.296,0.733-1.979
			c0.236-0.682,0.454-1.37,0.656-2.064c0.201-0.693,0.37-1.345,0.509-1.952h1.119c-0.208,0.814-0.439,1.617-0.692,2.408
			c-0.255,0.792-0.522,1.565-0.806,2.323c-0.282,0.757-0.577,1.485-0.883,2.185c-0.306,0.7-0.604,1.359-0.892,1.979h-1.042
			c-0.301-0.619-0.601-1.278-0.901-1.979c-0.3-0.699-0.591-1.428-0.874-2.185c-0.282-0.758-0.551-1.531-0.806-2.323
			c-0.254-0.791-0.484-1.594-0.692-2.408h1.188c0.138,0.607,0.308,1.259,0.509,1.952c0.202,0.694,0.42,1.383,0.656,2.064
			c0.235,0.683,0.48,1.343,0.733,1.979C175.517,52.015,175.764,52.58,176.005,53.073z"/>
		<path fill="#7D1C50" d="M181.037,49.821c0-0.78,0.111-1.459,0.336-2.039c0.224-0.579,0.516-1.063,0.877-1.453
			c0.361-0.391,0.774-0.68,1.238-0.869c0.465-0.189,0.943-0.284,1.438-0.284c1.089,0,1.958,0.355,2.606,1.067
			c0.647,0.711,0.972,1.806,0.972,3.286c0,0.092-0.003,0.184-0.009,0.274c-0.006,0.093-0.015,0.179-0.025,0.259h-6.245
			c0.034,1.09,0.304,1.927,0.809,2.512c0.504,0.585,1.308,0.877,2.408,0.877c0.607,0,1.09-0.057,1.445-0.172
			c0.355-0.114,0.613-0.212,0.774-0.292l0.206,0.963c-0.161,0.092-0.462,0.201-0.903,0.327s-0.961,0.189-1.557,0.189
			c-0.78,0-1.445-0.115-1.996-0.345c-0.551-0.229-1.004-0.55-1.359-0.963s-0.613-0.903-0.773-1.471
			C181.117,51.12,181.037,50.498,181.037,49.821z M187.352,49.116c-0.023-0.93-0.241-1.652-0.654-2.168
			c-0.413-0.517-0.998-0.774-1.755-0.774c-0.401,0-0.76,0.08-1.075,0.241c-0.315,0.16-0.591,0.376-0.826,0.645
			c-0.234,0.27-0.418,0.583-0.55,0.938c-0.133,0.355-0.21,0.729-0.232,1.118H187.352z"/>
		<path fill="#7D1C50" d="M193.252,54.433c-0.379-0.012-0.708-0.061-0.989-0.146s-0.517-0.218-0.705-0.396
			c-0.189-0.178-0.333-0.407-0.431-0.688s-0.146-0.634-0.146-1.059V41.133l1.119-0.206v11.183c0,0.275,0.025,0.496,0.077,0.662
			c0.052,0.167,0.129,0.299,0.232,0.396c0.103,0.098,0.237,0.169,0.404,0.215c0.166,0.046,0.363,0.086,0.594,0.12L193.252,54.433z"
			/>
		<path fill="#7D1C50" d="M202.972,49.839c0,0.699-0.101,1.336-0.301,1.909c-0.201,0.574-0.481,1.062-0.843,1.463
			s-0.789,0.714-1.282,0.938s-1.038,0.335-1.634,0.335c-0.597,0-1.142-0.111-1.635-0.335s-0.921-0.536-1.281-0.938
			c-0.361-0.401-0.643-0.889-0.844-1.463c-0.2-0.573-0.301-1.21-0.301-1.909c0-0.7,0.101-1.336,0.301-1.91
			c0.201-0.573,0.482-1.063,0.844-1.471c0.36-0.407,0.788-0.723,1.281-0.946s1.038-0.336,1.635-0.336
			c0.596,0,1.141,0.112,1.634,0.336s0.921,0.539,1.282,0.946s0.642,0.897,0.843,1.471C202.871,48.503,202.972,49.139,202.972,49.839
			z M201.785,49.839c0-1.112-0.258-1.999-0.774-2.658c-0.517-0.66-1.216-0.989-2.099-0.989c-0.884,0-1.583,0.329-2.1,0.989
			c-0.516,0.659-0.773,1.546-0.773,2.658s0.258,1.995,0.773,2.649c0.517,0.653,1.216,0.98,2.1,0.98c0.883,0,1.582-0.327,2.099-0.98
			C201.527,51.834,201.785,50.951,201.785,49.839z"/>
		<path fill="#7D1C50" d="M206.516,57.46h-1.118V45.692c0.333-0.114,0.757-0.224,1.273-0.327c0.516-0.104,1.17-0.155,1.961-0.155
			c0.654,0,1.247,0.106,1.781,0.318c0.533,0.213,0.991,0.52,1.376,0.921c0.384,0.401,0.683,0.889,0.895,1.462
			c0.212,0.574,0.318,1.222,0.318,1.944c0,0.677-0.089,1.299-0.267,1.867c-0.178,0.567-0.438,1.056-0.783,1.462
			c-0.344,0.407-0.766,0.726-1.265,0.955c-0.498,0.229-1.069,0.344-1.711,0.344c-0.585,0-1.093-0.083-1.523-0.249
			c-0.43-0.166-0.742-0.324-0.938-0.474V57.46z M206.516,52.678c0.104,0.08,0.232,0.166,0.388,0.258
			c0.154,0.092,0.335,0.178,0.542,0.258c0.206,0.08,0.43,0.146,0.671,0.198c0.24,0.052,0.493,0.077,0.757,0.077
			c0.551,0,1.012-0.095,1.385-0.284s0.674-0.447,0.903-0.774c0.229-0.326,0.396-0.711,0.499-1.152s0.154-0.909,0.154-1.402
			c0-1.17-0.292-2.067-0.877-2.692s-1.359-0.938-2.322-0.938c-0.551,0-0.995,0.025-1.334,0.077
			c-0.338,0.052-0.594,0.106-0.766,0.164V52.678z"/>
		<path fill="#7D1C50" d="M214.895,49.821c0-0.78,0.111-1.459,0.336-2.039c0.224-0.579,0.516-1.063,0.877-1.453
			c0.361-0.391,0.774-0.68,1.238-0.869c0.465-0.189,0.943-0.284,1.438-0.284c1.089,0,1.958,0.355,2.606,1.067
			c0.647,0.711,0.972,1.806,0.972,3.286c0,0.092-0.003,0.184-0.009,0.274c-0.006,0.093-0.015,0.179-0.025,0.259h-6.245
			c0.034,1.09,0.304,1.927,0.809,2.512c0.504,0.585,1.308,0.877,2.408,0.877c0.607,0,1.09-0.057,1.445-0.172
			c0.355-0.114,0.613-0.212,0.774-0.292l0.206,0.963c-0.161,0.092-0.462,0.201-0.903,0.327s-0.961,0.189-1.557,0.189
			c-0.78,0-1.445-0.115-1.996-0.345c-0.551-0.229-1.004-0.55-1.359-0.963s-0.613-0.903-0.773-1.471
			C214.975,51.12,214.895,50.498,214.895,49.821z M221.209,49.116c-0.023-0.93-0.241-1.652-0.654-2.168
			c-0.413-0.517-0.998-0.774-1.755-0.774c-0.401,0-0.76,0.08-1.075,0.241c-0.315,0.16-0.591,0.376-0.826,0.645
			c-0.234,0.27-0.418,0.583-0.55,0.938c-0.133,0.355-0.21,0.729-0.232,1.118H221.209z"/>
		<path fill="#7D1C50" d="M227.884,45.21c0.367,0,0.714,0.029,1.041,0.087c0.326,0.057,0.553,0.114,0.68,0.172l-0.224,0.963
			c-0.093-0.045-0.278-0.095-0.56-0.146c-0.281-0.052-0.651-0.078-1.109-0.078c-0.482,0-0.869,0.035-1.162,0.104
			c-0.292,0.068-0.484,0.126-0.576,0.172v7.794h-1.118v-8.482c0.287-0.126,0.683-0.255,1.188-0.387
			C226.547,45.276,227.161,45.21,227.884,45.21z"/>
	</g>
	<path fill="#FF9300" d="M27,35.979v0.003l-0.626,5.29l3.223-3.943c2.729,1.422,6.192,3.586,6.802,4.389
		c0,0,4.492-11.73,5.523-18.923L27,35.979z"/>
	<path fill="#FF9300" d="M24.614,35.214l17.214-12.42c-2,0.545-24.186,10.022-24.186,10.022
		C18.821,32.805,23.817,34.538,24.614,35.214z"/>
</g>
<g>
</g>
<g>
</g>
<g>
</g>
<g>
</g>
<g>
</g>
<g>
</g>
<g>
</g>
<g>
</g>
<g>
</g>
<g>
</g>
<g>
</g>
<g>
</g>
<g>
</g>
<g>
</g>
<g>
</g>
</svg>
