<?xml version="1.0" encoding="utf-8"?>
<!-- Generator: Adobe Illustrator 16.0.0, SVG Export Plug-In . SVG Version: 6.00 Build 0)  -->
<!DOCTYPE svg PUBLIC "-//W3C//DTD SVG 1.1//EN" "http://www.w3.org/Graphics/SVG/1.1/DTD/svg11.dtd">
<svg version="1.1" id="Layer_2" xmlns="http://www.w3.org/2000/svg" xmlns:xlink="http://www.w3.org/1999/xlink" x="0px" y="0px"
	 width="62px" height="60px" viewBox="0 0 62 60" enable-background="new 0 0 62 60" xml:space="preserve">
<g>
	<linearGradient id="SVGID_1_" gradientUnits="userSpaceOnUse" x1="24.7388" y1="1.4023" x2="40.8366" y2="61.4803">
		<stop  offset="0" style="stop-color:#FF9300"/>
		<stop  offset="1" style="stop-color:#FF8000"/>
	</linearGradient>
	<path fill="url(#SVGID_1_)" d="M26.407,1.497L3.218,18.426c-2.736,1.997-3.88,5.537-2.836,8.765l8.856,27.389
		C10.284,57.811,13.281,60,16.667,60h28.669c3.379,0,6.376-2.189,7.426-5.421l8.857-27.389c1.044-3.228-0.103-6.768-2.836-8.765
		L35.587,1.497C32.85-0.499,29.145-0.499,26.407,1.497"/>
	<path fill="#7D1C50" d="M27.667,35.774v0.004l-0.783,5.289l3.152-3.942c2.717,1.421,6.136,3.585,6.743,4.388
		c0,0,4.594-11.73,5.62-18.922L27.667,35.774z"/>
	<path fill="#7D1C50" d="M25.02,35.009l17.167-12.418C40.196,23.136,18.08,32.612,18.08,32.612
		C19.252,32.601,24.226,34.333,25.02,35.009z"/>
</g>
<g>
</g>
<g>
</g>
<g>
</g>
<g>
</g>
<g>
</g>
<g>
</g>
<g>
</g>
<g>
</g>
<g>
</g>
<g>
</g>
<g>
</g>
<g>
</g>
<g>
</g>
<g>
</g>
<g>
</g>
</svg>
